<svg xmlns="http://www.w3.org/2000/svg" xmlns:xlink="http://www.w3.org/1999/xlink" width="210" height="81" viewBox="0 0 210 81">
    <defs>
        <path id="a" d="M0 .325h55.27v43.153H0z"/>
    </defs>
    <g fill="none" fill-rule="evenodd">
        <path fill="#FFF" fill-opacity=".01" d="M.085.863H209.54v80H.085z"/>
        <g transform="translate(18.022 19.09)">
            <mask id="b" fill="#fff">
                <use xlink:href="#a"/>
            </mask>
            <path fill="#43A046" d="M27.539.324a21.001 21.001 0 0 0-12.517 4.169 21.227 21.227 0 0 0-7.525 10.51 1.564 1.564 0 0 1-.643.839 15.152 15.152 0 0 0-5.14 5.645 14.997 14.997 0 0 0-1.695 7.737c.2 4.05 2.037 7.62 4.836 10.175a15.66 15.66 0 0 0 10.608 4.08H39.91a15.598 15.598 0 0 0 10.58-4.195c2.782-2.595 4.594-6.199 4.766-10.251a14.996 14.996 0 0 0-1.748-7.725 15.154 15.154 0 0 0-5.18-5.61 1.593 1.593 0 0 1-.647-.832 21.223 21.223 0 0 0-7.597-10.46A21.009 21.009 0 0 0 27.539.325m.019 5.384a15.731 15.731 0 0 1 9.424 3.122 15.756 15.756 0 0 1 5.722 8.121l.216.719.215.719a1.543 1.543 0 0 0 .695.89l.646.381.646.382a9.715 9.715 0 0 1 3.598 3.695 9.651 9.651 0 0 1 1.17 5.025c-.1 2.616-1.273 4.936-3.075 6.604a10.14 10.14 0 0 1-6.845 2.693l-12.301.042-12.302.043c-2.613.009-5.05-.99-6.863-2.646-1.813-1.656-3.002-3.968-3.12-6.583a9.662 9.662 0 0 1 1.135-5.033 9.704 9.704 0 0 1 3.573-3.72l.643-.386.643-.386a1.553 1.553 0 0 0 .69-.894l.21-.72.21-.721a15.765 15.765 0 0 1 5.666-8.16 15.736 15.736 0 0 1 9.404-3.187" mask="url(#b)"/>
        </g>
        <g fill="#43A046">
            <path d="M41.396 37.867a1.149 1.149 0 0 1-1.142 1.153l-1.155.004-1.154.004a1.147 1.147 0 0 1-1.15-1.145l-.004-1.157-.004-1.156a1.15 1.15 0 0 1 1.142-1.152l1.154-.004 1.155-.004a1.15 1.15 0 0 1 1.15 1.144l.004 1.157.004 1.156zM47.927 37.867a1.149 1.149 0 0 1-1.142 1.153l-1.155.004-1.154.004a1.147 1.147 0 0 1-1.15-1.145l-.004-1.157-.004-1.156a1.15 1.15 0 0 1 1.142-1.152l1.154-.004 1.155-.004a1.147 1.147 0 0 1 1.15 1.144l.004 1.157.004 1.156zM54.458 37.868a1.15 1.15 0 0 1-1.142 1.152l-1.154.004-1.155.004a1.147 1.147 0 0 1-1.15-1.144l-.004-1.157-.004-1.157a1.144 1.144 0 0 1 1.142-1.152l1.154-.004 1.155-.004a1.152 1.152 0 0 1 1.18 1.122v.023l-.011 1.156-.011 1.157zM41.399 44.41a1.148 1.148 0 0 1-1.143 1.151l-1.154.004-1.154.004a1.148 1.148 0 0 1-1.15-1.145l-.005-1.156-.004-1.156a1.149 1.149 0 0 1 1.143-1.153l1.154-.004 1.155-.004a1.146 1.146 0 0 1 1.15 1.145l.004 1.157.004 1.156zM47.93 44.41a1.148 1.148 0 0 1-1.142 1.151l-1.155.004-1.154.004a1.148 1.148 0 0 1-1.15-1.145l-.004-1.156-.004-1.156a1.149 1.149 0 0 1 1.142-1.153l1.154-.004 1.155-.004a1.146 1.146 0 0 1 1.15 1.145l.004 1.157.004 1.156zM54.46 44.41a1.148 1.148 0 0 1-1.141 1.151l-1.155.004-1.154.004a1.147 1.147 0 0 1-1.15-1.145l-.004-1.156-.004-1.156a1.143 1.143 0 0 1 .333-.813 1.14 1.14 0 0 1 .809-.34l1.154-.004 1.155-.004a1.146 1.146 0 0 1 1.15 1.145l.004 1.157.004 1.156zM41.401 50.949A1.147 1.147 0 0 1 40.26 52.1l-1.154.004-1.154.004a1.146 1.146 0 0 1-1.15-1.145l-.005-1.156-.004-1.157a1.15 1.15 0 0 1 1.142-1.152l1.155-.004 1.155-.004a1.15 1.15 0 0 1 1.15 1.144l.003 1.157.004 1.157zM47.933 50.949A1.147 1.147 0 0 1 46.79 52.1l-1.154.004-1.154.004a1.146 1.146 0 0 1-1.15-1.145l-.005-1.156-.004-1.157a1.15 1.15 0 0 1 1.143-1.152l1.154-.004 1.155-.004a1.15 1.15 0 0 1 1.15 1.144l.003 1.157.005 1.157zM54.464 50.949A1.147 1.147 0 0 1 53.32 52.1l-1.154.004-1.154.004a1.146 1.146 0 0 1-1.15-1.145l-.005-1.156-.004-1.157a1.142 1.142 0 0 1 .334-.813c.206-.209.492-.338.809-.339l1.154-.004 1.155-.004a1.15 1.15 0 0 1 1.15 1.144l.004 1.157.004 1.157z"/>
        </g>
        <path fill="#444" d="M100.311 45.705a4.948 4.948 0 0 0 1.047-1.8c.231-.693.346-1.48.342-2.358-.003-.879-.122-1.664-.359-2.356a4.94 4.94 0 0 0-1.058-1.793 4.619 4.619 0 0 0-1.606-1.132 5.09 5.09 0 0 0-1.997-.373c-.732.003-1.397.132-1.995.387a4.603 4.603 0 0 0-1.597 1.143 4.915 4.915 0 0 0-1.048 1.8c-.231.693-.345 1.48-.342 2.359.003.878.122 1.663.359 2.355.236.692.589 1.29 1.059 1.793a4.61 4.61 0 0 0 1.604 1.132c.601.25 1.267.375 1.998.372.732-.002 1.397-.131 1.995-.386a4.618 4.618 0 0 0 1.598-1.143m3.038-14.959a10.808 10.808 0 0 1 2.385 1.828 11.604 11.604 0 0 1 1.841 2.466c.522.928.915 1.933 1.178 3.012.264 1.08.397 2.235.402 3.466a14.801 14.801 0 0 1-.378 3.468 11.861 11.861 0 0 1-1.158 3.02 11.592 11.592 0 0 1-1.823 2.48c-.7.72-1.49 1.334-2.374 1.843-.883.508-1.816.89-2.798 1.147-.983.256-2.015.385-3.097.39-1.39.004-2.63-.2-3.727-.613a7.907 7.907 0 0 1-2.876-1.868l.001 4.79.002 4.788a1.561 1.561 0 0 1-1.553 1.566l-2.61.01-2.61.009a1.562 1.562 0 0 1-1.564-1.557l-.04-14.959-.04-14.958a1.558 1.558 0 0 1 1.554-1.567l2.411-.008 2.413-.009a1.56 1.56 0 0 1 1.564 1.556l-.01.499-.01.499c.772-.926 1.742-1.622 2.91-2.087 1.169-.466 2.535-.702 4.1-.707a12.368 12.368 0 0 1 3.1.369c.984.249 1.92.625 2.807 1.127M114.502 21.25l2.61-.009 2.61-.009c.43-.001.82.173 1.103.454.283.28.459.671.46 1.102v14.746l.001 14.747a1.56 1.56 0 0 1-1.553 1.566l-2.61.01-2.61.008c-.43.002-.82-.172-1.103-.453a1.564 1.564 0 0 1-.46-1.103V22.817a1.554 1.554 0 0 1 .452-1.106c.28-.283.67-.46 1.1-.46M163.8 32.107l-2.12 5.197-2.122 5.197-2.121 5.197-2.121 5.196a1.559 1.559 0 0 1-1.437.97h-4.896l-1.633.001a1.547 1.547 0 0 1-.868-.26 1.585 1.585 0 0 1-.337-.304 1.583 1.583 0 0 1-.24-.398l-2.126-5.194-2.127-5.195-2.127-5.194-2.128-5.195a1.55 1.55 0 0 1 .141-1.463 1.544 1.544 0 0 1 1.293-.697l1.291-.005 1.292-.004 1.292-.004 1.291-.005a1.561 1.561 0 0 1 1.454.986l1.341 3.384 1.34 3.386 1.34 3.385 1.341 3.385 1.383-3.384 1.384-3.383 1.384-3.383 1.383-3.384a1.624 1.624 0 0 1 .98-.918c.146-.048.3-.074.457-.074l1.143.002 1.142.001 1.141.002 1.142.002a1.542 1.542 0 0 1 1.298.69 1.554 1.554 0 0 1 .15 1.463M181.791 45.419a4.926 4.926 0 0 0 1.048-1.811c.23-.7.345-1.498.342-2.392-.003-.879-.123-1.662-.36-2.35a4.834 4.834 0 0 0-1.058-1.777 4.613 4.613 0 0 0-1.606-1.115 5.151 5.151 0 0 0-1.996-.367 5.17 5.17 0 0 0-1.996.38 4.607 4.607 0 0 0-1.597 1.127 4.83 4.83 0 0 0-1.047 1.784c-.232.689-.346 1.474-.343 2.353.003.894.123 1.69.359 2.389.237.699.59 1.3 1.06 1.804.47.503 1.004.88 1.604 1.131.601.251 1.266.375 1.998.373.731-.003 1.396-.132 1.994-.386a4.613 4.613 0 0 0 1.598-1.143m-10.463 6.607a12.518 12.518 0 0 1-2.742-1.88 11.656 11.656 0 0 1-2.077-2.498 11.388 11.388 0 0 1-1.31-2.996 12.804 12.804 0 0 1-.444-3.372 12.619 12.619 0 0 1 .421-3.342 11.41 11.41 0 0 1 1.29-2.993 11.633 11.633 0 0 1 2.053-2.508 12.347 12.347 0 0 1 2.714-1.883 13.817 13.817 0 0 1 3.248-1.182c1.15-.263 2.37-.398 3.656-.402a16.639 16.639 0 0 1 3.665.377 13.99 13.99 0 0 1 3.273 1.16 12.35 12.35 0 0 1 2.737 1.858c.8.723 1.486 1.548 2.06 2.476a11.31 11.31 0 0 1 1.293 2.98 12.9 12.9 0 0 1 .439 3.366 12.96 12.96 0 0 1-.416 3.375 11.427 11.427 0 0 1-1.273 3.005 11.499 11.499 0 0 1-2.043 2.513 12.405 12.405 0 0 1-2.724 1.899c-1.022.53-2.11.93-3.265 1.198a16.428 16.428 0 0 1-3.661.408 16.204 16.204 0 0 1-3.632-.383 13.838 13.838 0 0 1-3.262-1.176M132.994 28.258h-5.145a1.593 1.593 0 0 1-1.593-1.597v-3.833a1.592 1.592 0 0 1 1.593-1.596h5.145a1.592 1.592 0 0 1 1.593 1.596v3.834a1.593 1.593 0 0 1-1.593 1.596M132.994 53.865h-5.145a1.592 1.592 0 0 1-1.593-1.596V31.561a1.593 1.593 0 0 1 1.593-1.595h5.145a1.593 1.593 0 0 1 1.593 1.596v20.707a1.592 1.592 0 0 1-1.593 1.596"/>
    </g>
</svg>
